<svg width="40" height="41" viewBox="0 0 40 41" fill="none" xmlns="http://www.w3.org/2000/svg">
<path d="M30.1665 18.3563C30.5118 18.9542 30.5118 19.691 30.1665 20.2889L23.6769 31.5284C22.9364 32.8109 23.862 34.4139 25.343 34.4139C26.0303 34.4139 26.6654 34.0473 27.0091 33.4521L31.2731 26.0673C32.017 24.7789 33.8768 24.7789 34.6207 26.0673L39.7382 34.9303C40.4821 36.2187 39.5522 37.8292 38.0643 37.8292H31.0256C31.0255 37.8292 31.0254 37.8293 31.0254 37.8294C31.0254 37.8296 31.0253 37.8297 31.0251 37.8297H14.2627L14.2624 37.8294H13.1811C12.3486 37.8294 11.8283 36.9283 12.2445 36.2074L21.9169 19.4557C22.2621 18.8578 22.2621 18.1211 21.9169 17.5231L21.6738 17.1021C20.9299 15.8137 19.0701 15.8137 18.3261 17.1021L6.91645 36.8627C6.5712 37.4606 5.93313 37.829 5.24262 37.829H1.93566C0.447809 37.829 -0.482099 36.2185 0.261826 34.9301L18.3252 3.646C19.0691 2.35758 20.9289 2.35758 21.6728 3.646L30.1665 18.3563Z" fill="#EDEDED"/>
</svg>
